<svg width="512" height="512" viewBox="0 0 512 512" fill="none" xmlns="http://www.w3.org/2000/svg">
  <defs>
    <linearGradient id="futuristic-gradient" x1="0%" y1="0%" x2="100%" y2="100%">
      <stop offset="0%" stop-color="#00E5FF" /> <stop offset="100%" stop-color="#8A2BE2" /> </linearGradient>
    <filter id="subtle-glow" x="-20%" y="-20%" width="140%" height="140%">
      <feGaussianBlur in="SourceGraphic" stdDeviation="8" result="blur" />
      <feColorMatrix in="blur" mode="matrix" values="1 0 0 0 0  0 1 0 0 0  0 0 1 0 0  0 0 0 0.5 0" result="glow" />
      <feMerge>
        <feMergeNode in="glow" />
        <feMergeNode in="SourceGraphic" />
      </feMerge>
    </filter>
  </defs>
  
  <g filter="url(#subtle-glow)">
    <path d="M140 120 C 80 120, 80 200, 120 220 L 160 240 L 120 260 C 80 280, 80 360, 140 360" 
          stroke="url(#futuristic-gradient)" stroke-width="24" stroke-linecap="round" stroke-linejoin="round" fill="none"/>
          
    <path d="M372 120 C 432 120, 432 200, 392 220 L 352 240 L 392 260 C 432 280, 432 360, 372 360" 
          stroke="url(#futuristic-gradient)" stroke-width="24" stroke-linecap="round" stroke-linejoin="round" fill="none"/>

    <path d="M180 180 L 256 220" stroke="url(#futuristic-gradient)" stroke-width="16" stroke-linecap="round" />
    <circle cx="180" cy="180" r="20" fill="url(#futuristic-gradient)" />
    
    <path d="M332 180 L 256 220" stroke="url(#futuristic-gradient)" stroke-width="16" stroke-linecap="round" />
    <circle cx="332" cy="180" r="20" fill="url(#futuristic-gradient)" />
    
    <circle cx="256" cy="220" r="24" fill="url(#futuristic-gradient)" />
    
    <path d="M256 220 L 180 300" stroke="url(#futuristic-gradient)" stroke-width="16" stroke-linecap="round" />
    <circle cx="180" cy="300" r="20" fill="url(#futuristic-gradient)" />
    
    <path d="M256 220 L 332 300" stroke="url(#futuristic-gradient)" stroke-width="16" stroke-linecap="round" />
    <circle cx="332" cy="300" r="20" fill="url(#futuristic-gradient)" />
    
    <path d="M160 240 L 352 240" stroke="url(#futuristic-gradient)" stroke-width="16" stroke-linecap="round" stroke-dasharray="40 20" />
  </g>
</svg>